<svg width="16" height="20" viewBox="0 0 16 20" fill="none" xmlns="http://www.w3.org/2000/svg">
<path fill-rule="evenodd" clip-rule="evenodd" d="M7.98493 13.3462C4.11731 13.3462 0.814453 13.931 0.814453 16.2729C0.814453 18.6148 4.09636 19.2205 7.98493 19.2205C11.8525 19.2205 15.1545 18.6348 15.1545 16.2938C15.1545 13.9529 11.8735 13.3462 7.98493 13.3462Z" fill="url(#paint0_linear_49_2690)" stroke="url(#paint1_linear_49_2690)" stroke-width="1.5" stroke-linecap="round" stroke-linejoin="round"/>
<path fill-rule="evenodd" clip-rule="evenodd" d="M7.98489 10.0059C10.523 10.0059 12.5801 7.94779 12.5801 5.40969C12.5801 2.8716 10.523 0.814453 7.98489 0.814453C5.44679 0.814453 3.3887 2.8716 3.3887 5.40969C3.38013 7.93922 5.42394 9.99731 7.95251 10.0059H7.98489Z" fill="url(#paint2_linear_49_2690)" stroke="url(#paint3_linear_49_2690)" stroke-width="1.42857" stroke-linecap="round" stroke-linejoin="round"/>
<defs>
<linearGradient id="paint0_linear_49_2690" x1="15.1545" y1="19.2205" x2="0.600679" y2="18.6319" gradientUnits="userSpaceOnUse">
<stop stop-color="#888BF4"/>
<stop offset="1" stop-color="#5151C6"/>
</linearGradient>
<linearGradient id="paint1_linear_49_2690" x1="15.1545" y1="19.2205" x2="0.600679" y2="18.6319" gradientUnits="userSpaceOnUse">
<stop stop-color="#888BF4"/>
<stop offset="1" stop-color="#5151C6"/>
</linearGradient>
<linearGradient id="paint2_linear_49_2690" x1="12.5801" y1="10.0059" x2="3.23896" y2="9.85112" gradientUnits="userSpaceOnUse">
<stop stop-color="#888BF4"/>
<stop offset="1" stop-color="#5151C6"/>
</linearGradient>
<linearGradient id="paint3_linear_49_2690" x1="12.5801" y1="10.0059" x2="3.23896" y2="9.85112" gradientUnits="userSpaceOnUse">
<stop stop-color="#888BF4"/>
<stop offset="1" stop-color="#5151C6"/>
</linearGradient>
</defs>
</svg>
