<svg width="21" height="21" viewBox="0 0 21 21" fill="none" xmlns="http://www.w3.org/2000/svg">
<path d="M9.49249 0.789062H5.75349C2.67849 0.789062 0.750488 2.96606 0.750488 6.04806V14.3621C0.750488 17.4441 2.66949 19.6211 5.75349 19.6211H14.5775C17.6625 19.6211 19.5815 17.4441 19.5815 14.3621V10.3341" stroke="#212121" stroke-width="1.5" stroke-linecap="round" stroke-linejoin="round"/>
<path fill-rule="evenodd" clip-rule="evenodd" d="M6.82812 8.92099L14.3011 1.44799C15.2321 0.517988 16.7411 0.517988 17.6721 1.44799L18.8891 2.66499C19.8201 3.59599 19.8201 5.10599 18.8891 6.03599L11.3801 13.545C10.9731 13.952 10.4211 14.181 9.84512 14.181H6.09912L6.19312 10.401C6.20712 9.84499 6.43412 9.31499 6.82812 8.92099Z" stroke="#212121" stroke-width="1.5" stroke-linecap="round" stroke-linejoin="round"/>
<path d="M13.1655 2.60254L17.7315 7.16854" stroke="#212121" stroke-width="1.5" stroke-linecap="round" stroke-linejoin="round"/>
</svg>
